# xmcd CD database file
#
# Track frame offsets:
#	150
#	17710
#	34810
#	53102
#	69698
#	86948
#	105577
#	123388
#	139772
#	161584
#	176729
#	198978
#	217743
#	234909
#
# Disc length: 3349 seconds
#
# Revision: 0
# Processed by: cddbd v1.5.2PL0 Copyright (c) Steve Scherf et al.
# Submitted via: CDex 1.70beta2
#
DISCID=bf0d130e
DTITLE=Celia Baron - Saxcess
DYEAR=2008
DGENRE=Jazz
TTITLE0=In The House
TTITLE1=September
TTITLE2=Freaky Phone
TTITLE3=Funky or What?
TTITLE4=Numa
TTITLE5=Glasshouse
TTITLE6=Tomorrow
TTITLE7=Funky Shoes
TTITLE8=Christmas Ballad
TTITLE9=Funkytastic
TTITLE10=Don't You Know
TTITLE11=That's The Plan
TTITLE12=May The Funk Be With You
TTITLE13=Music
EXTD=YEAR: 2008
EXTT0=
EXTT1=
EXTT2=
EXTT3=
EXTT4=
EXTT5=
EXTT6=
EXTT7=
EXTT8=
EXTT9=
EXTT10=
EXTT11=
EXTT12=
EXTT13=
PLAYORDER=
